<?xml version="1.0" standalone="no"?>
<!DOCTYPE svg PUBLIC "-//W3C//DTD SVG 20010904//EN"
 "http://www.w3.org/TR/2001/REC-SVG-20010904/DTD/svg10.dtd">
<svg version="1.0" xmlns="http://www.w3.org/2000/svg"
 width="1024.000000pt" height="1024.000000pt" viewBox="0 0 1024.000000 1024.000000"
 preserveAspectRatio="xMidYMid meet">

<g transform="translate(0.000000,1024.000000) scale(0.100000,-0.100000)"
fill="#000000" stroke="none">
<path d="M6916 10100 c-44 -5 -94 -14 -110 -20 -22 -8 -695 -11 -2271 -10
-1991 1 -2251 0 -2340 -14 -435 -69 -615 -127 -870 -280 -259 -156 -437 -308
-636 -544 -168 -198 -330 -492 -410 -737 -12 -38 -33 -98 -46 -132 -12 -34
-23 -68 -23 -75 0 -8 -11 -41 -24 -74 -24 -59 -33 -126 -56 -399 -11 -142 -17
-5590 -5 -5648 4 -20 10 -37 14 -37 8 0 35 -67 37 -95 4 -47 30 -143 42 -157
7 -9 12 -20 10 -24 -2 -10 8 -47 24 -84 6 -14 14 -34 18 -45 4 -11 15 -37 24
-58 9 -21 16 -44 16 -52 0 -8 5 -15 10 -15 6 0 10 -6 10 -12 0 -19 46 -128 59
-141 6 -6 11 -18 11 -27 0 -8 16 -39 35 -69 19 -29 35 -55 35 -58 0 -12 190
-291 213 -312 15 -14 27 -30 27 -36 0 -24 210 -228 320 -311 138 -105 306
-197 480 -265 99 -38 110 -45 110 -70 0 -21 11 -24 27 -8 8 8 14 5 23 -11 9
-16 15 -19 23 -11 16 16 24 14 30 -10 l6 -21 29 21 29 20 -1 -22 c-2 -35 81
-66 99 -37 11 18 46 12 43 -8 -4 -21 36 -29 57 -12 20 16 51 5 37 -13 -9 -10
-3 -13 26 -15 79 -3 158 -13 177 -22 12 -6 582 -12 1480 -15 803 -2 1474 -5
1490 -5 143 -5 2812 14 2820 20 6 4 57 10 115 14 58 4 109 11 115 17 5 5 26 9
46 9 21 0 41 4 44 10 3 5 24 10 46 10 21 0 39 5 39 11 0 6 13 9 30 7 19 -2 34
3 39 11 5 8 16 11 25 8 8 -3 18 -2 21 3 4 6 1 10 -6 10 -8 0 -9 3 -4 9 12 11
137 53 142 47 2 -2 -20 -14 -49 -27 -38 -16 -47 -24 -34 -27 10 -2 22 2 27 10
7 10 12 11 29 0 17 -10 20 -10 20 3 0 8 9 15 20 15 11 0 28 4 38 9 9 5 28 13
42 19 126 53 151 66 146 79 -4 8 5 18 22 25 15 6 29 12 32 14 3 1 15 5 28 9
12 4 22 11 22 14 0 9 31 8 46 -2 7 -4 14 4 17 21 4 18 27 43 70 74 35 27 67
48 72 48 4 0 22 10 39 23 17 13 38 27 46 31 32 15 65 36 57 36 -4 0 18 22 50
49 112 94 265 264 336 373 46 72 207 403 237 488 36 103 44 120 57 120 8 0 13
12 13 29 0 17 4 32 9 35 5 3 12 42 16 86 4 44 11 83 16 86 5 3 9 34 9 69 0 38
5 67 12 71 9 5 10 638 4 2633 -7 2873 -10 3195 -31 3316 -87 500 -264 893
-551 1218 -234 267 -454 435 -774 593 -172 85 -317 132 -500 164 -187 33 -289
42 -596 48 -232 6 -294 10 -308 21 -22 18 -315 25 -440 11z m869 -456 c457
-16 735 -99 1066 -319 126 -84 317 -270 416 -405 158 -216 286 -491 344 -738
37 -161 18 -122 -58 118 -7 20 -15 24 -46 25 -23 1 -37 -3 -37 -10 0 -17 -39
-26 -61 -14 -25 13 -39 11 -39 -6 0 -19 -7 -19 -25 -1 -11 10 -40 12 -132 8
-65 -2 -119 -8 -121 -13 -2 -4 -10 -5 -18 -2 -8 3 -14 0 -14 -6 0 -6 -4 -11
-10 -11 -5 0 -10 11 -10 25 0 21 -6 27 -31 32 -19 3 -34 14 -36 25 -7 25 -23
23 -23 -3 0 -12 -4 -18 -11 -13 -6 3 -15 0 -20 -7 -7 -11 -14 -8 -34 15 -14
16 -28 26 -32 22 -4 -4 -1 -11 6 -15 8 -6 11 -16 6 -31 -4 -12 -10 -19 -14
-14 -3 5 -35 10 -71 11 -36 1 -72 2 -80 3 -16 2 -44 50 -29 50 5 0 9 -4 9 -10
0 -5 7 -10 15 -10 17 0 19 9 6 29 -6 10 -13 11 -29 2 -11 -6 -34 -11 -51 -11
-17 0 -31 -4 -31 -10 0 -5 -11 -10 -25 -10 -14 0 -25 5 -25 10 0 6 -7 10 -15
10 -8 0 -15 -7 -15 -15 0 -8 -9 -15 -20 -15 -11 0 -20 -4 -20 -10 0 -5 -8 -10
-17 -10 -17 1 -17 1 0 11 23 14 22 36 -3 34 -11 -1 -23 -4 -26 -8 -13 -13 -23
-7 -26 15 -4 27 -21 33 -41 13 -22 -22 -28 -19 -21 10 4 15 2 25 -5 25 -6 0
-11 -7 -11 -15 0 -17 -9 -19 -30 -5 -13 9 -13 11 0 19 8 6 11 14 6 18 -5 4
-11 2 -13 -4 -3 -7 -11 -13 -18 -13 -7 0 -16 6 -19 13 -5 10 -7 10 -12 0 -3
-7 -12 -13 -19 -13 -7 0 -15 6 -18 13 -2 6 -8 9 -12 5 -9 -8 18 -38 34 -38 6
0 11 5 11 10 0 6 5 10 10 10 6 0 10 -7 10 -15 0 -8 5 -15 10 -15 6 0 10 -4 10
-10 0 -5 -22 -10 -50 -10 -58 0 -64 -12 -17 -36 20 -11 27 -19 18 -22 -19 -6
-65 31 -69 57 -3 21 -22 31 -22 11 0 -5 -7 -10 -15 -10 -20 0 -19 -17 2 -28
16 -9 16 -11 0 -27 -9 -9 -17 -23 -17 -31 0 -11 -6 -13 -22 -8 -13 4 -27 12
-31 18 -6 8 -10 8 -14 -1 -6 -15 -43 -17 -43 -3 0 6 -6 10 -14 10 -8 0 -16 5
-18 12 -6 16 -48 -22 -48 -44 0 -9 8 -21 17 -27 15 -8 16 -12 3 -35 -16 -32
-27 -33 -51 -4 -11 11 -19 16 -19 10 0 -7 -4 -12 -10 -12 -5 0 -10 7 -10 15 0
8 5 15 10 15 6 0 10 11 10 25 0 16 6 25 15 25 8 0 15 5 15 10 0 14 -27 12 -33
-2 -4 -10 -8 -9 -16 2 -14 21 -22 9 -24 -38 0 -22 -5 -38 -9 -36 -10 6 -38
-20 -38 -35 0 -6 -11 -11 -25 -11 -14 0 -25 -5 -25 -10 0 -12 -48 -2 -69 14
-11 8 -15 8 -18 -1 -3 -9 -10 -9 -29 -1 -26 12 -30 23 -14 33 6 3 13 -1 16 -9
7 -17 24 -22 24 -7 0 17 -32 42 -46 37 -8 -3 -14 1 -14 9 0 8 7 15 15 15 8 0
15 5 15 10 0 6 -7 10 -16 10 -8 0 -12 5 -8 11 3 6 0 15 -7 20 -12 8 -12 11 1
20 13 9 12 10 -2 5 -10 -3 -18 -1 -18 4 0 6 -4 10 -10 10 -5 0 -10 -9 -10 -20
0 -11 -7 -20 -15 -20 -10 0 -15 11 -15 35 0 28 -4 35 -20 35 -16 0 -20 7 -20
35 l0 35 -50 0 -50 0 0 35 c0 33 -2 35 -35 35 -24 0 -35 5 -35 15 0 10 -11 15
-35 15 -28 0 -35 4 -35 20 0 15 -7 20 -25 20 -20 0 -25 5 -25 25 0 20 -5 25
-25 25 -19 0 -25 -5 -25 -20 0 -29 -44 -70 -76 -70 -20 0 -25 4 -20 16 3 9 6
20 6 25 0 5 9 9 20 9 11 0 20 5 20 10 0 6 -7 10 -16 10 -18 0 -44 -23 -44 -39
0 -6 -7 -11 -15 -11 -8 0 -15 5 -15 10 0 6 -7 10 -15 10 -10 0 -15 -10 -15
-29 0 -26 -4 -29 -45 -35 -43 -7 -45 -9 -45 -42 0 -19 5 -34 10 -34 6 0 10
-11 10 -25 0 -22 -4 -25 -35 -25 -20 0 -43 -8 -53 -18 -10 -10 -25 -17 -33
-14 -28 7 -64 27 -79 43 -8 9 -20 14 -25 12 -6 -2 -20 5 -31 15 -11 11 -30 25
-42 31 -25 13 -29 31 -7 31 8 0 15 -7 15 -15 0 -8 5 -15 10 -15 16 0 12 22 -7
36 -10 7 -30 10 -45 7 -19 -4 -39 3 -72 26 -25 18 -46 37 -46 43 0 7 6 6 15
-2 9 -7 18 -10 22 -7 3 3 18 0 34 -8 33 -18 39 -18 39 -5 0 6 -9 10 -20 10
-11 0 -20 5 -20 11 0 6 9 13 20 16 17 5 20 14 20 59 l0 54 -45 0 c-25 0 -45
-4 -45 -10 0 -5 -7 -10 -15 -10 -9 0 -28 -12 -42 -27 -14 -16 -24 -21 -21 -13
5 16 -14 40 -31 40 -6 0 -11 -5 -11 -11 0 -7 -13 -9 -37 -5 -21 4 -55 9 -76
11 -21 3 -63 22 -95 43 -31 21 -82 52 -112 68 -30 16 -57 32 -60 35 -3 3 -25
16 -50 28 -25 11 -60 31 -78 42 -18 12 -35 19 -38 17 -12 -12 280 -198 345
-219 l33 -11 -6 -62 c-4 -33 -7 -253 -8 -488 -1 -236 -4 -428 -6 -428 -15 0
-228 121 -372 210 -91 57 -204 125 -252 152 -47 27 -91 54 -97 61 -14 18 -21
1025 -7 1031 22 9 -26 34 -86 45 -44 7 -65 8 -74 0 -11 -9 -13 -115 -10 -527
1 -285 -1 -525 -6 -534 -9 -18 -119 -86 -258 -160 -47 -25 -155 -86 -240 -135
-229 -133 -252 -145 -264 -140 -9 4 -13 135 -15 515 l-2 509 87 42 c47 23 84
45 81 48 -4 3 -31 -6 -62 -21 -31 -14 -59 -26 -63 -26 -4 0 -29 -11 -56 -25
-27 -14 -57 -25 -65 -25 -9 0 -29 -8 -46 -18 l-30 -19 0 -534 0 -534 -110 -55
c-60 -31 -168 -89 -240 -129 -139 -79 -160 -91 -263 -149 -101 -57 -164 -84
-173 -75 -4 4 -11 118 -16 253 -8 240 -18 246 -22 13 0 -46 -7 -100 -15 -120
-54 -152 -54 -153 -46 -433 5 -165 -8 -320 -27 -327 -14 -6 -18 -43 -4 -43 4
0 6 -44 3 -97 -8 -169 -7 -526 2 -562 8 -33 8 -34 -20 -27 -16 4 -74 30 -129
58 -55 27 -140 66 -190 85 -49 20 -132 60 -183 90 -85 50 -209 103 -239 103
-7 0 -17 -17 -23 -37 -15 -49 -21 -894 -26 -3516 -2 -1121 -7 -2043 -10 -2049
-10 -15 -296 1 -310 18 -6 7 -37 17 -70 20 -55 7 -57 8 -27 16 18 5 35 13 39
20 5 8 -12 9 -67 2 -41 -5 -124 -9 -186 -9 -91 0 -115 3 -129 16 -25 25 -9 56
48 92 l50 32 -1 330 -1 330 108 53 c59 28 131 68 161 87 29 19 57 35 63 35 7
0 8 -88 4 -267 -3 -148 -6 -294 -5 -325 0 -31 -5 -66 -11 -78 -6 -11 -7 -20
-2 -20 29 0 32 36 36 336 2 170 8 369 12 443 l7 134 -46 -6 c-26 -4 -68 -18
-95 -31 -94 -47 -387 -218 -405 -235 -16 -16 -16 -40 -6 -421 8 -307 14 -413
25 -437 9 -21 10 -33 3 -33 -15 0 -205 77 -267 108 l-54 27 -5 1475 c-2 811
-4 1844 -3 2295 1 802 -3 956 -22 937 -5 -5 -10 -123 -10 -268 -1 -142 -3
-225 -5 -184 -2 41 -9 80 -14 87 -6 7 -8 26 -4 43 6 29 5 30 -29 30 -30 0 -36
-4 -36 -21 0 -17 -5 -20 -32 -17 l-33 3 -3 68 -3 67 -174 0 -175 0 0 -30 c0
-27 -3 -30 -30 -30 -28 0 -30 -2 -30 -40 0 -36 -2 -40 -25 -40 -24 0 -25 -2
-25 -65 0 -58 -2 -65 -20 -65 -16 0 -20 -7 -20 -35 0 -31 -3 -35 -25 -35 l-25
0 0 -135 0 -135 -25 0 c-20 0 -25 5 -25 25 0 14 -4 25 -10 25 -5 0 -10 -4 -10
-10 0 -5 -6 -10 -13 -10 -18 0 -27 -155 -29 -529 -1 -222 -3 -262 -8 -177 -4
60 -9 938 -11 1950 -4 1743 -3 1848 14 1971 33 235 52 304 138 521 48 122 57
141 132 269 119 203 343 434 567 583 219 146 556 264 830 291 100 10 5243 6
5535 -5z m-1348 -1118 c43 -29 128 -84 188 -121 61 -37 162 -100 225 -140 63
-40 135 -83 160 -96 39 -22 45 -28 42 -54 -1 -17 -5 -229 -8 -472 -4 -275 -10
-443 -16 -443 -9 0 -104 52 -198 110 -118 72 -436 253 -465 265 -24 11 -34 22
-39 46 -8 42 -8 944 1 952 13 14 34 6 110 -47z m1863 -146 c0 -5 -4 -10 -10
-10 -5 0 -10 5 -10 10 0 6 5 10 10 10 6 0 10 -4 10 -10z m-16 -56 c9 -24 7
-27 -9 -10 -17 17 -19 26 -6 26 5 0 12 -7 15 -16z m226 -50 c0 -8 -4 -12 -10
-9 -5 3 -10 13 -10 21 0 8 5 12 10 9 6 -3 10 -13 10 -21z m-520 -14 c0 -5 -7
-10 -15 -10 -8 0 -15 5 -15 10 0 6 7 10 15 10 8 0 15 -4 15 -10z m0 -58 c0
-10 -7 -19 -15 -19 -18 0 -19 9 -3 25 16 16 18 15 18 -6z m-230 -82 c0 -5 -7
-10 -15 -10 -8 0 -15 5 -15 10 0 6 7 10 15 10 8 0 15 -4 15 -10z m-90 -14 c0
-3 -4 -8 -10 -11 -5 -3 -10 -1 -10 4 0 6 5 11 10 11 6 0 10 -2 10 -4z m1979
-106 c0 -23 -1 -23 -9 -5 -5 11 -9 31 -9 45 0 23 1 23 9 5 5 -11 9 -31 9 -45z
m-4408 -558 c-2 -262 -5 -480 -7 -483 -10 -17 -256 -150 -563 -304 -152 -77
-195 -94 -202 -84 -5 8 -9 224 -9 480 l0 466 113 56 c113 57 180 94 253 140
22 13 73 42 114 62 41 21 102 54 135 75 112 70 149 89 160 79 6 -7 9 -177 6
-487z m295 407 c60 -34 159 -94 219 -134 61 -40 148 -94 195 -120 47 -27 111
-64 143 -84 l59 -36 -1 -459 c-1 -253 -3 -462 -5 -464 -6 -6 -136 62 -289 151
-78 46 -169 98 -202 117 -103 57 -230 134 -237 145 -10 13 -10 929 -1 938 9 9
-2 14 119 -54z m4131 -161 c-3 -7 -5 -2 -5 12 0 14 2 19 5 13 2 -7 2 -19 0
-25z m0 -270 c-1 -46 -3 -11 -3 77 0 88 2 125 3 83 2 -42 2 -114 0 -160z
m-2455 -338 c3 -196 2 -335 -3 -310 -19 106 -23 690 -4 668 1 -1 5 -163 7
-358z m-2912 -133 l0 -474 -27 -14 c-75 -38 -272 -145 -423 -229 -113 -62
-300 -157 -325 -164 -20 -6 -20 -1 -20 422 0 235 -3 452 -7 483 l-8 55 49 13
c53 13 137 55 361 176 308 168 375 203 388 204 9 1 12 -100 12 -472z m2180
352 c69 -40 172 -102 230 -139 110 -70 240 -139 301 -159 l35 -11 -3 -458 c-1
-251 -3 -458 -3 -460 0 -4 -315 160 -430 223 -47 26 -127 70 -177 97 -51 27
-95 53 -98 57 -4 8 -10 720 -6 864 1 37 5 57 13 57 7 0 69 -32 138 -71z
m-1230 -1026 l0 -498 -33 -19 c-17 -10 -176 -90 -352 -178 -176 -88 -335 -167
-353 -176 -29 -15 -34 -15 -42 -2 -6 9 -8 199 -6 490 l4 475 89 45 c48 25 124
65 168 89 44 24 104 57 134 74 30 16 106 55 170 88 64 32 134 69 156 83 22 14
46 26 53 26 9 0 12 -106 12 -497z m189 463 c9 -8 108 -68 221 -134 264 -155
337 -198 413 -247 l62 -40 2 -447 c1 -247 5 -457 8 -469 4 -11 5 -23 2 -25 -7
-7 -245 117 -326 170 -103 67 -178 110 -287 164 -55 28 -105 56 -111 64 -13
14 -31 932 -20 962 8 20 16 20 36 2z m4238 -28 c-3 -8 -6 -5 -6 6 -1 11 2 17
5 13 3 -3 4 -12 1 -19z m-2448 -568 c0 -216 -16 -201 141 -133 127 55 220 92
320 129 41 15 99 38 128 51 l53 24 57 -21 c88 -33 257 -126 362 -199 52 -36
145 -98 205 -138 61 -40 164 -110 230 -155 65 -46 153 -102 195 -126 41 -24
80 -49 86 -55 8 -9 7 -89 -1 -290 -7 -153 -16 -281 -19 -284 -3 -4 -6 10 -6
30 0 30 -4 37 -20 37 -15 0 -20 7 -20 25 0 23 -4 25 -40 25 -22 0 -40 -4 -40
-10 0 -5 -11 -10 -24 -10 -14 0 -27 -4 -31 -10 -3 -5 -12 -7 -19 -4 -18 7 -23
-12 -30 -116 -10 -145 -11 -824 -2 -839 7 -11 12 -9 22 10 l13 24 1 -27 0 -28
104 0 104 0 7 -30 c4 -16 3 -54 0 -85 -7 -52 -9 -55 -35 -55 -22 0 -29 -6 -36
-32 -8 -26 -16 -34 -37 -36 -16 -2 -34 1 -40 6 -7 5 -26 8 -43 6 -28 -3 -31 0
-40 34 -9 32 -12 18 -20 -103 -10 -149 -8 -794 3 -907 7 -78 11 -76 -104 -58
-65 11 -227 87 -250 117 -7 9 -26 17 -42 18 -17 2 -37 9 -45 18 -14 13 -14 16
0 21 9 3 20 4 25 0 5 -3 9 9 9 25 0 17 5 31 10 31 6 0 10 6 10 14 0 23 38 30
65 12 20 -14 25 -14 25 -2 0 15 47 19 56 5 3 -5 14 -9 25 -9 11 0 38 -17 62
-39 23 -21 57 -46 76 -56 l34 -17 -6 248 c-3 137 -2 361 3 497 10 274 11 267
-51 312 -75 54 -271 205 -322 249 -39 33 -69 50 -90 52 -18 1 -60 12 -94 24
-48 17 -62 27 -66 46 -3 20 0 23 27 26 23 2 32 9 34 26 2 12 7 22 11 22 3 0 6
136 5 303 -1 238 2 312 14 350 9 30 13 75 10 118 -2 38 0 69 4 69 4 0 8 5 8
10 0 6 -11 8 -25 4 -21 -5 -25 -3 -25 15 0 14 -6 21 -20 21 -13 0 -20 -7 -20
-20 0 -11 -4 -20 -8 -20 -12 0 -41 123 -53 224 -23 181 -27 147 -28 -274 -1
-239 -4 -867 -7 -1395 -3 -528 -6 -1466 -7 -2084 -1 -801 -5 -1125 -13 -1128
-19 -6 -24 493 -24 2667 0 2188 -8 2830 -36 2860 -9 9 -17 11 -23 5 -5 -6 -23
-129 -39 -275 -36 -308 -58 -832 -51 -1197 3 -123 1 -223 -4 -223 -4 0 -23 11
-41 25 -18 14 -35 25 -39 25 -3 0 -56 31 -119 69 -62 37 -177 103 -255 146
l-143 77 0 82 c-1 44 -6 290 -11 546 -6 256 -10 474 -9 485 1 11 4 130 7 265
7 286 22 259 22 -40z m-2923 105 c6 -36 0 -934 -7 -938 -2 -1 -119 -60 -259
-130 -140 -71 -310 -157 -378 -192 -67 -35 -129 -62 -136 -59 -11 4 -13 79
-13 412 1 224 -2 436 -6 472 l-7 65 148 72 c146 71 336 171 527 276 55 30 105
55 112 56 7 0 15 -15 19 -34z m2129 -67 c28 -17 102 -61 165 -98 63 -36 169
-98 235 -136 66 -38 138 -78 160 -89 l40 -20 -3 -455 c-2 -250 -5 -456 -7
-458 -4 -4 -118 53 -170 86 -22 14 -75 43 -117 64 -43 20 -106 54 -140 75 -64
38 -220 117 -249 126 -23 7 -29 118 -29 551 0 266 3 372 11 382 15 18 40 11
104 -28z m-1189 -633 c1 -17 3 -232 5 -480 l4 -450 -230 -115 c-281 -141 -531
-260 -545 -260 -13 0 -12 -31 -14 496 l-1 460 200 102 c110 56 270 135 355
175 85 41 164 82 175 91 29 23 50 16 51 -19z m502 -185 c100 -59 231 -133 291
-164 l108 -57 -5 -202 c-5 -216 -21 -305 -22 -127 -1 87 -15 216 -19 173 0 -7
-12 -13 -26 -13 -16 0 -25 -6 -25 -15 0 -10 -10 -15 -30 -15 -16 0 -30 -5 -30
-11 0 -8 -21 -10 -70 -5 l-70 7 0 -30 c0 -29 -3 -31 -35 -31 -19 0 -35 5 -35
10 0 6 -30 10 -70 10 -63 0 -70 -2 -70 -20 0 -11 -7 -20 -15 -20 -8 0 -15 5
-15 11 0 5 -13 15 -30 20 -16 6 -30 17 -30 25 0 8 -10 14 -25 14 -19 0 -23 -4
-19 -17 3 -10 -2 -6 -11 10 -9 15 -15 33 -14 40 1 6 1 57 0 112 -1 69 -4 95
-11 85 -6 -9 -10 -122 -10 -268 l0 -254 31 -29 c17 -16 36 -29 42 -29 15 0
139 -71 134 -77 -6 -5 -125 51 -202 95 l-50 28 -6 250 c-8 339 -10 680 -4 686
6 6 43 -15 343 -192z m-1440 -730 l-4 -465 -369 -187 c-204 -103 -380 -187
-392 -187 -13 -1 -23 5 -24 12 0 6 -1 218 -2 469 l-2 458 350 177 c193 97 366
186 385 199 63 40 62 47 58 -476z m2105 399 c34 -17 134 -75 222 -128 88 -53
212 -123 275 -156 l115 -60 3 -113 c2 -76 -1 -111 -8 -107 -6 3 -10 47 -10
101 l0 95 -57 25 c-100 43 -194 94 -313 169 -96 60 -232 140 -262 153 -5 2 -8
-192 -8 -432 l0 -435 23 -17 c22 -16 22 -16 -13 -10 -19 4 -38 10 -43 15 -11
11 -23 819 -13 884 4 26 12 47 17 47 5 0 38 -14 72 -31z m7 -69 c0 -5 -5 -10
-11 -10 -5 0 -7 5 -4 10 3 6 8 10 11 10 2 0 4 -4 4 -10z m-5023 -182 c-3 -8
-6 -5 -6 6 -1 11 2 17 5 13 3 -3 4 -12 1 -19z m1959 -625 c-6 -457 -9 -519
-23 -530 -9 -7 -48 -26 -87 -42 -39 -16 -120 -53 -181 -82 -60 -28 -145 -67
-189 -85 -43 -18 -87 -41 -97 -50 -11 -10 -21 -15 -23 -13 -2 2 -6 227 -8 499
l-5 494 24 22 c12 11 58 36 100 53 108 45 359 176 413 216 25 19 54 34 64 34
19 1 19 -12 12 -516z m5651 470 c-3 -10 -5 -2 -5 17 0 19 2 27 5 18 2 -10 2
-26 0 -35z m-1706 -46 c84 -56 284 -171 389 -224 l115 -58 6 -490 c4 -269 6
-491 5 -492 -1 -1 -26 5 -55 13 -55 17 -159 82 -294 187 -27 20 -53 37 -59 37
-17 0 -143 52 -159 67 -17 14 -17 -4 -11 791 2 212 2 210 63 169z m-1584 -103
c-3 -3 -12 -4 -19 -1 -8 3 -5 6 6 6 11 1 17 -2 13 -5z m-465 -562 l3 -494 -28
-23 c-28 -21 -187 -105 -201 -105 -9 0 -176 -79 -384 -182 -90 -44 -165 -78
-168 -75 -3 2 -5 229 -6 503 l0 499 68 38 c73 39 473 237 481 237 5 0 118 57
188 94 16 8 33 12 36 8 4 -4 9 -229 11 -500z m197 464 c15 -14 109 -70 211
-124 193 -104 434 -242 461 -264 14 -11 15 -27 9 -108 l-7 -95 -1 82 -2 83
-51 26 c-28 14 -108 60 -178 103 -70 43 -175 103 -234 134 -58 31 -127 68
-152 83 -26 15 -49 23 -53 18 -4 -5 -5 -214 -2 -464 3 -250 5 -456 4 -458 -4
-9 -34 13 -38 26 -2 10 -8 234 -11 500 -8 521 -9 509 44 458z m446 -6 c3 -6
-1 -7 -9 -4 -18 7 -21 14 -7 14 6 0 13 -4 16 -10z m1135 -470 c0 -71 -3 -130
-7 -130 -5 0 -19 9 -33 20 l-25 20 23 0 c21 0 22 3 22 110 0 67 4 110 10 110
6 0 10 -50 10 -130z m1207 -92 c-2 -35 -3 -9 -3 57 0 66 1 94 3 63 2 -32 2
-86 0 -120z m-3935 -340 c2 -283 0 -498 -5 -505 -5 -7 -17 -13 -27 -13 -9 0
-152 -67 -318 -150 -297 -148 -389 -190 -417 -190 -11 0 -14 74 -18 458 -2
251 -7 469 -11 483 -7 25 -3 28 81 68 48 23 221 109 383 191 162 82 302 149
312 150 15 0 17 -41 20 -492z m2107 408 c108 -72 580 -326 608 -326 7 0 13 -7
13 -15 0 -12 -9 -11 -52 6 -88 34 -410 200 -526 271 -34 21 -66 38 -71 38 -13
0 -22 -247 -21 -585 1 -263 -1 -310 -13 -313 -12 -3 -16 43 -22 293 -7 266 0
628 12 648 8 14 37 7 72 -17z m-3055 -898 c-3 -255 -7 -469 -10 -476 -3 -12
-564 -292 -584 -292 -4 0 -8 211 -9 469 l-2 469 29 21 c40 28 286 153 347 176
28 11 84 36 125 57 121 60 110 107 104 -424z m3965 368 c11 -9 9 -12 -10 -16
-20 -5 -25 -14 -33 -63 -4 -31 -12 -57 -17 -57 -5 0 -9 41 -9 90 l0 90 28 -17
c15 -9 33 -21 41 -27z m238 -121 c23 -8 86 -34 140 -58 l98 -45 6 -113 c9
-167 10 -857 1 -862 -10 -7 -262 118 -285 141 -17 18 -18 40 -16 423 2 222 2
432 1 467 -2 34 1 62 5 62 5 0 27 -7 50 -15z m-2321 -56 c1 -19 5 -243 9 -499
l8 -465 -50 -31 c-28 -17 -88 -46 -134 -64 -46 -17 -163 -70 -259 -117 -284
-139 -318 -154 -327 -140 -9 14 -17 930 -8 965 4 18 52 46 243 140 130 65 287
141 347 169 61 28 119 58 130 67 28 22 40 15 41 -25z m201 15 c5 -14 78 -52
184 -96 19 -9 98 -54 175 -102 76 -48 183 -108 236 -134 91 -44 116 -62 85
-62 -23 0 -251 118 -307 159 -30 22 -77 53 -105 68 -76 42 -247 113 -256 107
-5 -3 -6 -212 -2 -465 6 -455 6 -459 -14 -459 -19 0 -20 9 -27 413 -3 227 -3
452 0 500 7 82 17 107 31 71z m-1139 -914 l-3 -500 -135 -64 c-202 -95 -561
-272 -592 -292 -15 -10 -30 -15 -34 -11 -4 4 -8 234 -10 511 l-3 505 87 42
c48 23 141 65 207 94 66 30 199 90 295 134 96 44 178 81 183 81 4 0 6 -225 5
-500z m4460 400 c-8 -41 -12 -217 -12 -482 -1 -290 -4 -420 -12 -428 -15 -15
-25 210 -25 563 1 279 9 386 32 413 22 26 28 0 17 -66z m-2392 26 c-3 -11 -6
-231 -6 -488 0 -409 -2 -468 -15 -468 -13 0 -15 61 -15 488 0 269 3 491 6 495
13 13 35 -6 30 -27z m77 -17 c23 -12 69 -40 102 -63 33 -23 109 -68 168 -100
109 -58 143 -88 49 -43 -56 27 -79 41 -229 134 -56 35 -106 63 -110 63 -4 0
-17 7 -27 15 -29 22 -1 18 47 -6z m-3093 -612 c0 -122 -3 -333 -7 -469 l-6
-246 -101 -50 c-56 -27 -112 -53 -126 -57 -34 -10 -159 -73 -193 -97 -34 -25
-146 -69 -150 -60 -2 4 -4 220 -6 480 -3 428 -2 472 13 472 24 0 307 124 441
193 66 35 123 61 128 59 4 -2 7 -103 7 -225z m1886 -114 c0 -38 3 -359 6 -716
3 -356 3 -649 -1 -651 -3 -2 -175 -1 -382 2 l-376 5 -7 505 c-4 278 -10 517
-13 532 -4 25 -1 29 32 40 21 7 113 47 204 90 91 42 222 101 291 130 130 55
186 86 209 114 27 32 37 18 37 -51z m195 25 c7 -16 40 -36 102 -62 50 -22 85
-42 78 -44 -7 -2 -18 1 -24 7 -6 6 -18 11 -27 11 -9 0 -39 11 -66 25 -27 14
-50 25 -51 25 -2 0 -4 -199 -4 -442 -1 -476 -11 -616 -22 -328 -11 254 -13
830 -4 830 4 0 12 -10 18 -22z m2358 -295 c0 -148 -2 -263 -4 -258 -8 19 -10
525 -2 525 4 0 7 -120 6 -267z m959 -415 c-2 -194 0 -369 5 -388 7 -38 -13
-83 -30 -67 -13 13 -16 528 -4 651 11 110 19 156 28 156 2 0 3 -159 1 -352z
m-4455 280 c9 -74 13 -935 6 -943 -4 -3 -177 -6 -385 -6 l-379 0 -6 298 c-4
164 -8 305 -10 313 -5 19 19 31 496 248 44 20 121 60 170 88 50 29 93 53 96
53 4 1 9 -23 12 -51z m2057 -468 c0 -273 -3 -420 -10 -420 -7 0 -10 147 -10
420 0 273 3 420 10 420 7 0 10 -147 10 -420z m-3007 -192 c4 -155 5 -283 4
-285 -2 -2 -135 -4 -296 -6 l-291 -2 2 163 3 163 86 29 c118 39 267 106 374
168 49 29 94 52 100 52 8 0 14 -83 18 -282z m-1600 -595 c-7 -2 -19 -2 -25 0
-7 3 -2 5 12 5 14 0 19 -2 13 -5z"/>
<path d="M5451 9130 c21 -28 90 -80 106 -80 4 0 -8 12 -27 28 -18 15 -46 39
-62 55 -37 35 -44 34 -17 -3z"/>
<path d="M5577 9039 c7 -7 15 -10 18 -7 3 3 -2 9 -12 12 -14 6 -15 5 -6 -5z"/>
<path d="M5715 8950 c3 -5 8 -10 11 -10 2 0 4 5 4 10 0 6 -5 10 -11 10 -5 0
-7 -4 -4 -10z"/>
<path d="M6760 8650 c0 -5 5 -10 10 -10 6 0 10 5 10 10 0 6 -4 10 -10 10 -5 0
-10 -4 -10 -10z"/>
<path d="M7008 8623 c7 -3 16 -2 19 1 4 3 -2 6 -13 5 -11 0 -14 -3 -6 -6z"/>
<path d="M8320 8480 c0 -5 5 -10 10 -10 6 0 10 5 10 10 0 6 -4 10 -10 10 -5 0
-10 -4 -10 -10z"/>
<path d="M8363 8475 c-7 -7 -18 -15 -25 -18 -7 -2 -10 -7 -7 -11 9 -10 37 3
43 21 8 21 4 24 -11 8z"/>
<path d="M6716 8444 c-11 -29 6 -42 33 -25 12 8 12 12 -2 25 -20 20 -23 20
-31 0z"/>
<path d="M8440 8430 c0 -5 5 -10 10 -10 6 0 10 5 10 10 0 6 -4 10 -10 10 -5 0
-10 -4 -10 -10z"/>
<path d="M8500 8430 c0 -5 5 -10 10 -10 6 0 10 5 10 10 0 6 -4 10 -10 10 -5 0
-10 -4 -10 -10z"/>
<path d="M8790 8430 c-12 -8 -11 -10 8 -10 12 0 22 5 22 10 0 13 -11 13 -30 0z"/>
<path d="M8850 8432 c0 -4 -12 -15 -27 -24 l-28 -17 48 -1 c26 0 47 -5 47 -11
0 -14 52 -7 58 9 2 8 -7 12 -25 12 -17 0 -34 8 -43 20 -15 20 -30 27 -30 12z
m20 -22 c0 -5 -4 -10 -10 -10 -5 0 -10 5 -10 10 0 6 5 10 10 10 6 0 10 -4 10
-10z"/>
<path d="M8710 8420 c-17 -10 -13 -15 18 -24 24 -8 30 5 9 22 -8 7 -18 7 -27
2z"/>
<path d="M8060 8410 c0 -5 5 -10 10 -10 6 0 10 5 10 10 0 6 -4 10 -10 10 -5 0
-10 -4 -10 -10z"/>
<path d="M8130 8411 c0 -11 31 -24 39 -16 3 3 -1 10 -9 15 -19 12 -30 12 -30
1z"/>
<path d="M9361 8366 c-8 -9 -25 -12 -56 -8 -30 3 -45 1 -45 -7 0 -6 15 -11 34
-11 19 0 41 -3 50 -6 11 -4 16 -1 16 10 0 9 7 16 15 16 8 0 15 5 15 10 0 14
-16 12 -29 -4z"/>
<path d="M8040 8360 c0 -5 5 -10 10 -10 6 0 10 5 10 10 0 6 -4 10 -10 10 -5 0
-10 -4 -10 -10z"/>
<path d="M8791 8354 c-7 -8 -20 -13 -28 -10 -9 4 -13 1 -11 -6 3 -7 20 -13 40
-14 32 -2 36 0 36 22 0 27 -16 31 -37 8z"/>
<path d="M7960 8345 c0 -8 5 -15 10 -15 6 0 10 7 10 15 0 8 -4 15 -10 15 -5 0
-10 -7 -10 -15z"/>
<path d="M9060 8350 c0 -5 5 -10 10 -10 6 0 10 5 10 10 0 6 -4 10 -10 10 -5 0
-10 -4 -10 -10z"/>
<path d="M9410 8337 c0 -8 7 -14 15 -14 8 0 15 6 15 14 0 7 -7 13 -15 13 -8 0
-15 -6 -15 -13z"/>
<path d="M7720 8290 c0 -5 5 -10 10 -10 6 0 10 5 10 10 0 6 -4 10 -10 10 -5 0
-10 -4 -10 -10z"/>
<path d="M7750 8274 c0 -15 23 -44 34 -44 14 0 5 48 -10 54 -22 9 -24 8 -24
-10z"/>
<path d="M7685 8259 c-9 -13 2 -24 33 -34 13 -4 22 -2 22 4 0 6 -4 11 -9 11
-5 0 -16 7 -25 15 -10 10 -17 12 -21 4z"/>
<path d="M3380 7050 c0 -5 5 -10 10 -10 6 0 10 5 10 10 0 6 -4 10 -10 10 -5 0
-10 -4 -10 -10z"/>
<path d="M1861 6314 c0 -11 3 -14 6 -6 3 7 2 16 -1 19 -3 4 -6 -2 -5 -13z"/>
<path d="M2350 6264 c0 -22 3 -25 23 -20 12 3 28 6 35 6 6 0 12 9 12 20 0 16
-7 20 -35 20 -31 0 -35 -3 -35 -26z"/>
<path d="M1800 6211 l0 -41 -70 0 -70 0 0 -29 c0 -26 -4 -30 -32 -33 -29 -3
-33 -7 -36 -35 -3 -29 -7 -33 -33 -33 -28 0 -29 -2 -29 -45 0 -25 -4 -45 -10
-45 -5 0 -10 -7 -10 -15 0 -8 -4 -15 -10 -15 -5 0 -10 -4 -10 -10 0 -6 58 -10
155 -10 l155 0 0 31 c0 22 5 32 20 36 11 3 20 12 20 19 0 9 11 14 30 14 23 0
30 4 30 20 0 16 7 20 35 20 33 0 35 2 35 35 0 33 2 35 35 35 24 0 35 5 35 15
0 11 12 15 50 15 l50 0 0 50 0 50 -117 0 c-65 0 -142 3 -170 6 l-53 7 0 -42z"/>
<path d="M2560 6215 c-7 -8 -23 -15 -35 -15 -12 0 -34 -9 -49 -21 -14 -11 -26
-17 -26 -12 0 4 -11 -5 -25 -20 -14 -15 -32 -27 -40 -27 -8 0 -24 -9 -35 -20
-11 -11 -27 -20 -34 -20 -8 0 -27 -11 -42 -25 -34 -32 -20 -32 26 -1 19 12 64
39 100 58 231 124 221 118 193 118 -11 0 -26 -7 -33 -15z"/>
<path d="M2370 6180 c0 -5 5 -10 10 -10 6 0 10 5 10 10 0 6 -4 10 -10 10 -5 0
-10 -4 -10 -10z"/>
<path d="M2848 6172 c-10 -2 -18 -8 -18 -13 0 -11 11 -11 30 1 18 11 11 18
-12 12z"/>
<path d="M2172 5995 c-17 -19 -1 -19 24 0 14 11 15 14 4 14 -8 0 -21 -6 -28
-14z"/>
<path d="M2115 5963 c-18 -14 -18 -15 -2 -9 10 3 23 6 28 6 5 0 9 5 9 10 0 14
-12 12 -35 -7z"/>
<path d="M1817 5796 c-4 -10 0 -12 14 -9 22 6 26 23 5 23 -8 0 -16 -6 -19 -14z"/>
<path d="M1662 5705 c-18 -20 6 -20 32 0 20 15 20 15 0 15 -10 -1 -25 -7 -32
-15z"/>
<path d="M1625 5680 c-3 -5 -1 -10 4 -10 6 0 11 5 11 10 0 6 -2 10 -4 10 -3 0
-8 -4 -11 -10z"/>
<path d="M1545 5639 c-16 -11 -23 -18 -15 -15 8 3 23 9 33 12 9 4 17 10 17 15
0 12 -1 12 -35 -12z"/>
<path d="M1475 5614 c-9 -9 -14 -18 -11 -21 6 -6 46 20 46 29 0 13 -18 9 -35
-8z"/>
<path d="M2238 5354 c-20 -7 -54 -24 -75 -37 -32 -19 -193 -108 -388 -211 -34
-19 -40 -26 -37 -51 1 -17 5 -214 8 -440 3 -225 9 -414 14 -418 9 -11 103 29
123 51 12 14 16 79 19 366 4 288 7 351 19 358 127 75 280 158 302 163 25 7 29
4 40 -24 6 -17 14 -31 18 -31 8 0 22 267 14 280 -7 12 -9 12 -57 -6z"/>
<path d="M2224 4258 l-19 -23 23 19 c21 18 27 26 19 26 -2 0 -12 -10 -23 -22z"/>
<path d="M2221 4214 c-24 -13 -52 -24 -63 -24 -45 0 -361 -166 -395 -209 -18
-21 -19 -961 -1 -961 31 0 122 37 143 58 20 19 22 28 14 55 -14 48 -23 423
-14 600 7 156 7 157 31 157 13 0 61 19 106 43 118 61 215 100 231 94 36 -14
34 168 -2 204 -3 4 -26 -4 -50 -17z"/>
<path d="M2230 3012 c-19 -9 -102 -49 -185 -88 -82 -39 -180 -85 -218 -103
-104 -50 -100 -31 -86 -371 10 -230 10 -320 0 -423 -7 -82 -8 -134 -2 -140 11
-11 105 15 142 40 15 10 45 31 69 46 23 16 40 31 37 34 -3 2 -17 -3 -32 -13
-15 -10 -30 -13 -35 -8 -8 8 -12 227 -11 546 l1 137 56 25 c31 14 60 26 65 26
5 0 58 26 118 59 l109 58 7 -31 8 -31 7 30 c16 62 9 226 -9 224 -3 0 -22 -8
-41 -17z"/>
<path d="M2261 2224 c-1 -78 -9 -90 -71 -114 -55 -21 -172 -82 -167 -86 3 -3
20 2 38 10 19 8 66 24 104 36 109 34 115 40 114 108 -1 31 -5 71 -9 87 -6 23
-8 13 -9 -41z"/>
<path d="M2247 693 c-2 -5 -1 -19 4 -33 7 -23 7 -23 8 8 1 31 -3 40 -12 25z"/>
<path d="M6384 6690 c0 -58 1 -81 3 -52 2 28 2 76 0 105 -2 28 -3 5 -3 -53z"/>
<path d="M6379 6520 c-4 -38 -2 -59 7 -69 8 -8 17 -11 21 -7 4 4 2 10 -4 14
-7 4 -13 32 -15 62 l-3 55 -6 -55z"/>
<path d="M6435 6420 c3 -5 11 -10 16 -10 6 0 7 5 4 10 -3 6 -11 10 -16 10 -6
0 -7 -4 -4 -10z"/>
<path d="M6628 6343 c-26 -6 -22 -16 15 -37 143 -84 236 -120 255 -99 17 18
15 23 -11 23 -29 0 -47 18 -47 47 0 17 -6 23 -24 23 -12 0 -38 5 -56 12 -28 9
-35 8 -44 -5 -9 -11 -16 -13 -30 -5 -15 8 -16 12 -5 19 7 4 11 10 9 12 -10 9
-45 14 -62 10z"/>
<path d="M6898 6173 c7 -3 16 -2 19 1 4 3 -2 6 -13 5 -11 0 -14 -3 -6 -6z"/>
<path d="M5460 6634 c0 -8 5 -12 10 -9 6 3 10 10 10 16 0 5 -4 9 -10 9 -5 0
-10 -7 -10 -16z"/>
<path d="M5466 6018 c-8 -69 -6 -167 4 -198 5 -15 8 28 9 113 1 75 -1 137 -3
137 -2 0 -6 -24 -10 -52z"/>
<path d="M6101 5674 c0 -11 3 -14 6 -6 3 7 2 16 -1 19 -3 4 -6 -2 -5 -13z"/>
<path d="M6093 5521 c-6 -10 -9 -28 -6 -40 7 -26 -22 -30 -31 -4 -6 15 -8 15
-16 3 -14 -22 -12 -30 9 -30 11 0 21 -4 23 -9 2 -4 13 -12 26 -15 21 -7 22 -4
21 36 0 24 -4 51 -7 60 -7 17 -8 17 -19 -1z"/>
<path d="M8233 5318 c-4 -7 -7 -190 -6 -406 3 -356 12 -515 31 -534 4 -3 60
-36 126 -73 65 -36 147 -86 181 -109 63 -45 118 -76 132 -76 4 0 8 183 8 407
0 369 2 413 18 458 18 49 18 50 -3 67 -12 10 -56 36 -98 59 -120 66 -194 110
-237 145 -71 55 -138 83 -152 62z"/>
<path d="M8176 4854 c-9 -24 -7 -54 4 -54 6 0 10 16 10 35 0 38 -4 44 -14 19z"/>
<path d="M8170 4615 c0 -44 3 -55 16 -55 13 0 15 7 10 31 -3 17 -6 42 -6 55 0
13 -4 24 -10 24 -5 0 -10 -25 -10 -55z"/>
<path d="M6380 6138 c-1 -13 -3 -210 -6 -438 l-6 -415 54 -24 c29 -13 71 -36
93 -50 22 -14 65 -38 95 -53 30 -16 78 -41 105 -57 90 -52 209 -113 236 -121
14 -4 33 -3 42 2 15 8 17 34 16 246 -1 130 -5 266 -9 302 l-7 65 -3 -50 c-2
-33 -4 -40 -7 -22 -3 15 -11 27 -19 27 -8 0 -17 6 -20 14 -3 8 -19 18 -35 21
-16 4 -29 11 -29 16 0 5 -47 9 -105 9 -63 0 -105 -4 -105 -10 0 -6 -28 -10
-65 -10 l-65 0 0 -35 c0 -34 -1 -35 -38 -35 -36 0 -38 2 -49 43 -7 24 -10 53
-7 65 5 17 2 20 -14 16 -29 -8 -33 18 -38 228 -6 209 -2 228 48 228 26 0 29 2
18 15 -7 8 -18 15 -25 15 -7 0 -18 7 -25 15 -18 21 -30 19 -30 -7z m427 -584
c-3 -3 -12 -4 -19 -1 -8 3 -5 6 6 6 11 1 17 -2 13 -5z"/>
<path d="M6480 6090 c0 -5 5 -10 11 -10 5 0 7 5 4 10 -3 6 -8 10 -11 10 -2 0
-4 -4 -4 -10z"/>
<path d="M6897 5849 c7 -7 15 -10 18 -7 3 3 -2 9 -12 12 -14 6 -15 5 -6 -5z"/>
<path d="M6970 5816 c0 -2 7 -7 16 -10 8 -3 12 -2 9 4 -6 10 -25 14 -25 6z"/>
<path d="M5467 5413 c7 -60 13 -68 13 -20 0 21 5 37 11 37 6 0 4 7 -5 15 -23
23 -26 18 -19 -32z"/>
<path d="M5460 5225 c0 -14 5 -25 10 -25 6 0 10 11 10 25 0 14 -4 25 -10 25
-5 0 -10 -11 -10 -25z"/>
<path d="M5979 5160 c13 -11 31 -20 40 -20 10 0 6 7 -14 20 -39 26 -57 25 -26
0z"/>
<path d="M6079 5107 c6 -8 8 -17 5 -20 -4 -3 1 -13 10 -22 15 -15 17 -15 25 7
10 28 -3 48 -31 48 -16 0 -18 -3 -9 -13z"/>
<path d="M7465 3953 c-4 -27 -12 -57 -18 -68 -6 -11 -10 -35 -8 -52 1 -18 -2
-33 -7 -33 -5 0 -9 -6 -9 -12 2 -26 -16 -88 -25 -88 -5 0 -8 -23 -6 -52 3 -47
7 -55 37 -75 19 -13 38 -23 42 -23 5 0 9 101 9 225 0 124 -2 225 -4 225 -2 0
-7 -21 -11 -47z"/>
<path d="M2803 805 c0 -27 2 -38 4 -22 2 15 2 37 0 50 -2 12 -4 0 -4 -28z"/>
<path d="M1325 410 c3 -5 11 -10 16 -10 6 0 7 5 4 10 -3 6 -11 10 -16 10 -6 0
-7 -4 -4 -10z"/>
<path d="M1365 390 c-3 -5 -1 -10 4 -10 6 0 11 5 11 10 0 6 -2 10 -4 10 -3 0
-8 -4 -11 -10z"/>
<path d="M1440 360 c-9 -6 -10 -10 -3 -10 6 0 15 5 18 10 8 12 4 12 -15 0z"/>
<path d="M1480 340 c0 -5 4 -10 9 -10 6 0 13 5 16 10 3 6 -1 10 -9 10 -9 0
-16 -4 -16 -10z"/>
<path d="M1526 324 c-6 -15 -4 -15 11 -3 10 7 20 15 22 16 2 2 -3 3 -11 3 -9
0 -19 -7 -22 -16z"/>
<path d="M1570 315 c0 -16 16 -20 24 -6 3 5 -1 11 -9 15 -9 3 -15 0 -15 -9z"/>
</g>
</svg>
